<?xml version="1.0" standalone="no"?>
<!DOCTYPE svg PUBLIC "-//W3C//DTD SVG 1.1//EN" "http://www.w3.org/Graphics/SVG/1.1/DTD/svg11.dtd">
<!--Generator: Xara Xtreme (www.xara.com), SVG filter version: 1.0.0.13-->
<svg stroke-width="0.501" stroke-linejoin="bevel" fill-rule="evenodd" xmlns:xlink="http://www.w3.org/1999/xlink" xmlns="http://www.w3.org/2000/svg" version="1.1" overflow="visible" width="45pt" height="45pt" viewBox="0 0 45 45">
 <defs>
  <marker id="DefaultArrow2" markerUnits="strokeWidth" viewBox="0 0 1 1" markerWidth="1" markerHeight="1" overflow="visible" orient="auto">
   <!-- REF_ARROW_STRAIGHT (-2) -->
   <g transform="scale(0.0092592592)">
    <!-- 1/108 -->
    <path d="M -9 54 L -9 -54 L 117 0 z"/>
   </g>
  </marker>
  <marker id="DefaultArrow3" markerUnits="strokeWidth" viewBox="0 0 1 1" markerWidth="1" markerHeight="1" overflow="visible" orient="auto">
   <!-- REF_ARROW_ANGLED -->
   <g transform="scale(0.0092592592)">
    <path d="M -27 54 L -9 0 L -27 -54 L 135 0 z"/>
   </g>
  </marker>
  <marker id="DefaultArrow4" markerUnits="strokeWidth" viewBox="0 0 1 1" markerWidth="1" markerHeight="1" overflow="visible" orient="auto">
   <!-- REF_ARROW_ROUNDED -->
   <g transform="scale(0.0092592592)">
    <path d="M -9,0 L -9,-45 C -9,-51.708 2.808,-56.580 9,-54 L 117,-9 C 120.916,-7.369 126.000,-4.242 126,0 C 126,4.242 120.916,7.369 117,9 L 9,54 C 2.808,56.580 -9,51.708 -9,45 z"/>
   </g>
  </marker>
  <marker id="DefaultArrow5" markerUnits="strokeWidth" viewBox="0 0 1 1" markerWidth="1" markerHeight="1" overflow="visible" orient="auto">
   <!-- REF_ARROW_SPOT -->
   <g transform="scale(0.0092592592)">
    <path d="M -54, 0 C -54,29.807 -29.807,54 0,54 C 29.807,54 54,29.807 54,0 C 54,-29.807 29.807,-54 0,-54 C -29.807,-54 -54,-29.807 -54,0 z"/>
   </g>
  </marker>
  <marker id="DefaultArrow6" markerUnits="strokeWidth" viewBox="0 0 1 1" markerWidth="1" markerHeight="1" overflow="visible" orient="auto">
   <!-- REF_ARROW_DIAMOND -->
   <g transform="scale(0.0092592592)">
    <path d="M -63,0 L 0,63 L 63,0 L 0,-63 z"/>
   </g>
  </marker>
  <marker id="DefaultArrow7" markerUnits="strokeWidth" viewBox="0 0 1 1" markerWidth="1" markerHeight="1" overflow="visible" orient="auto">
   <!-- REF_ARROW_FEATHER -->
   <g transform="scale(0.0092592592)">
    <path d="M 18,-54 L 108,-54 L 63,0 L 108,54 L 18, 54 L -36,0 z"/>
   </g>
  </marker>
  <marker id="DefaultArrow8" markerUnits="strokeWidth" viewBox="0 0 1 1" markerWidth="1" markerHeight="1" overflow="visible" orient="auto">
   <!-- REF_ARROW_FEATHER2 -->
   <g transform="scale(0.0092592592)">
    <path d="M -36,0 L 18,-54 L 54,-54 L 18,-18 L 27,-18 L 63,-54 L 99,-54 L 63,-18 L 72,-18 L 108,-54 L 144,-54 L 90,0 L 144,54 L 108,54 L 72,18 L 63,18 L 99,54 L 63,54 L 27,18 L 18,18 L 54,54 L 18,54 z"/>
   </g>
  </marker>
  <marker id="DefaultArrow9" markerUnits="strokeWidth" viewBox="0 0 1 1" markerWidth="1" markerHeight="1" overflow="visible" orient="auto">
   <!-- REF_ARROW_HOLLOWDIAMOND -->
   <g transform="scale(0.0092592592)">
    <path d="M 0,45 L -45,0 L 0, -45 L 45, 0 z M 0, 63 L-63, 0 L 0, -63 L 63, 0 z"/>
   </g>
  </marker>
  <filter id="StainedFilter">
   <feBlend mode="multiply" in2="BackgroundImage" in="SourceGraphic" result="blend"/>
   <feComposite in="blend" in2="SourceAlpha" operator="in" result="comp"/>
  </filter>
  <filter id="BleachFilter">
   <feBlend mode="screen" in2="BackgroundImage" in="SourceGraphic" result="blend"/>
   <feComposite in="blend" in2="SourceAlpha" operator="in" result="comp"/>
  </filter>
  <filter id="InvertTransparencyBitmapFilter">
   <feComponentTransfer>
    <feFuncR type="gamma" amplitude="1.055" exponent=".416666666" offset="-0.055"/>
    <feFuncG type="gamma" amplitude="1.055" exponent=".416666666" offset="-0.055"/>
    <feFuncB type="gamma" amplitude="1.055" exponent=".416666666" offset="-0.055"/>
   </feComponentTransfer>
   <feComponentTransfer>
    <feFuncR type="linear" slope="-1" intercept="1"/>
    <feFuncG type="linear" slope="-1" intercept="1"/>
    <feFuncB type="linear" slope="-1" intercept="1"/>
    <feFuncA type="linear" slope="1" intercept="0"/>
   </feComponentTransfer>
   <feComponentTransfer>
    <feFuncR type="gamma" amplitude="1" exponent="2.4" offset="0"/>
    <feFuncG type="gamma" amplitude="1" exponent="2.4" offset="0"/>
    <feFuncB type="gamma" amplitude="1" exponent="2.4" offset="0"/>
   </feComponentTransfer>
  </filter>
 </defs>
 <g id="Document" fill="none" stroke="black" font-family="Times New Roman" font-size="16" transform="scale(1 -1)">
  <g id="Spread" transform="translate(0 -45)">
   <g id="Layer 1">
    <g id="Group" stroke-linecap="round">
     <path d="M 24.749,9.375 L 4.501,9.375 C 2.224,9.375 0.375,11.223 0.375,13.5 C 0.375,15.777 2.224,17.625 4.501,17.625 L 16.12,17.625 C 17.147,17.625 18.179,17.514 19.186,17.312 L 25.447,16.053 C 26.976,15.731 28.125,14.374 28.125,12.75 C 28.125,10.887 26.612,9.375 24.749,9.375 Z" stroke-linejoin="round" stroke="#f27349" stroke-width="0.75" marker-start="none" marker-end="none" stroke-miterlimit="79.8403193612775"/>
     <path d="M 4.499,15.376 C 5.534,15.376 6.375,14.535 6.375,13.5 C 6.375,12.465 5.534,11.624 4.499,11.624 C 3.464,11.624 2.623,12.465 2.623,13.5 C 2.623,14.535 3.464,15.376 4.499,15.376 Z" stroke-linejoin="round" stroke="#f27349" stroke-width="0.75" marker-start="none" marker-end="none" stroke-miterlimit="79.8403193612775"/>
     <path d="M 23.625,12.749 C 23.625,13.369 24.129,13.873 24.749,13.873 C 25.369,13.873 25.873,13.369 25.873,12.749" fill="none" stroke-linejoin="round" stroke="#f27349" stroke-width="0.75" stroke-miterlimit="79.8403193612775"/>
     <path d="M 10.498,16.125 C 11.119,16.125 11.624,15.621 11.624,15 C 11.624,14.379 11.119,13.875 10.498,13.875 C 9.877,13.875 9.372,14.379 9.372,15 C 9.372,15.621 9.877,16.125 10.498,16.125 Z" stroke-linejoin="round" stroke="#f27349" stroke-width="0.75" marker-start="none" marker-end="none" stroke-miterlimit="79.8403193612775"/>
     <path d="M 12.375,12.375 L 38.625,12.375" fill="none" stroke-linejoin="round" stroke="#f27349" stroke-width="0.75" stroke-miterlimit="79.8403193612775"/>
     <path d="M 27.375,10.125 L 38.625,10.125" fill="none" stroke-linejoin="round" stroke="#f27349" stroke-width="0.75" stroke-miterlimit="79.8403193612775"/>
     <path d="M 12.374,10.125 L 12.374,12.375" fill="none" stroke-linejoin="round" stroke="#f27349" stroke-width="0.75" stroke-miterlimit="79.8403193612775"/>
     <path d="M 39.375,9.375 L 38.625,18.375 C 38.579,18.932 39.395,19.125 40.125,19.125 C 40.477,19.125 40.799,18.72 40.875,18.375 L 42.375,11.625 L 43.875,9.375 L 39.375,9.375 Z" stroke-linejoin="round" stroke="#f27349" stroke-width="0.75" marker-start="none" marker-end="none" stroke-miterlimit="79.8403193612775"/>
     <path d="M 29.625,12.375 L 38.625,16.875" fill="none" stroke-linejoin="round" stroke="#f27349" stroke-width="0.75" stroke-miterlimit="79.8403193612775"/>
     <path d="M 31.125,31.875 L 37.125,16.125" fill="none" stroke-linejoin="round" stroke="#f27349" stroke-width="0.75" stroke-miterlimit="79.8403193612775"/>
     <path d="M 18.375,17.625 L 18.375,26.625 L 33.375,25.875" fill="none" stroke-linejoin="round" stroke="#f27349" stroke-width="0.75" stroke-miterlimit="79.8403193612775"/>
     <path d="M 34.125,23.625 L 34.125,15.375 L 27.375,15.375" fill="none" stroke-linejoin="round" stroke="#f27349" stroke-width="0.75" stroke-miterlimit="79.8403193612775"/>
     <path d="M 18.375,20.624 L 1.875,20.624 L 1.875,22.875 L 3.375,25.125 L 4.875,25.125 L 5.625,34.875" fill="none" stroke-linejoin="round" stroke="#f27349" stroke-width="0.75" stroke-miterlimit="79.8403193612775"/>
     <path d="M 17.625,34.874 L 4.875,34.874" fill="none" stroke-linejoin="round" stroke="#f27349" stroke-width="0.75" stroke-miterlimit="79.8403193612775"/>
     <path d="M 18.375,26.625 L 16.875,34.875" fill="none" stroke-linejoin="round" stroke="#f27349" stroke-width="0.75" stroke-miterlimit="79.8403193612775"/>
     <path d="M 11.625,34.875 L 11.625,20.625" fill="none" stroke-linejoin="round" stroke="#f27349" stroke-width="0.75" stroke-miterlimit="79.8403193612775"/>
     <path d="M 5.625,27.375 L 11.625,27.375" fill="none" stroke-linejoin="round" stroke="#f27349" stroke-width="0.75" stroke-miterlimit="79.8403193612775"/>
     <path d="M 11.625,23.625 L 18.375,23.625" fill="none" stroke-linejoin="round" stroke="#f27349" stroke-width="0.75" stroke-miterlimit="79.8403193612775"/>
     <path d="M 3.375,20.625 L 3.375,17.625" fill="none" stroke-linejoin="round" stroke="#f27349" stroke-width="0.75" stroke-miterlimit="79.8403193612775"/>
     <path d="M 25.125,26.904 L 25.125,30.375 L 25.875,31.125" fill="none" stroke-linejoin="round" stroke="#f27349" stroke-width="0.75" stroke-miterlimit="79.8403193612775"/>
     <path d="M 20.625,19.125 L 24.375,19.125" fill="none" stroke-linejoin="round" stroke="#f27349" stroke-width="0.75" stroke-miterlimit="79.8403193612775"/>
     <path d="M 20.625,21.375 L 24.375,21.375" fill="none" stroke-linejoin="round" stroke="#f27349" stroke-width="0.75" stroke-miterlimit="79.8403193612775"/>
     <path d="M 17.248,16.125 C 17.869,16.125 18.374,15.621 18.374,15 C 18.374,14.379 17.869,13.875 17.248,13.875 C 16.627,13.875 16.122,14.379 16.122,15 C 16.122,15.621 16.627,16.125 17.248,16.125 Z" stroke-linejoin="round" stroke="#f27349" stroke-width="0.75" marker-start="none" marker-end="none" stroke-miterlimit="79.8403193612775"/>
     <path d="M 0,44.998 L 0,0 L 45,0 L 45,44.998 L 0,44.998 Z" stroke-linejoin="miter" stroke="none" stroke-width="0.562" marker-start="none" marker-end="none" stroke-miterlimit="79.8403193612775"/>
    </g>
   </g>
  </g>
 </g>
</svg>
