<?xml version="1.0" standalone="no"?>
<!DOCTYPE svg PUBLIC "-//W3C//DTD SVG 1.1//EN" "http://www.w3.org/Graphics/SVG/1.1/DTD/svg11.dtd">
<!--Generator: Xara Xtreme (www.xara.com), SVG filter version: 1.0.0.13-->
<svg stroke-width="0.501" stroke-linejoin="bevel" fill-rule="evenodd" xmlns:xlink="http://www.w3.org/1999/xlink" xmlns="http://www.w3.org/2000/svg" version="1.1" overflow="visible" width="45pt" height="45pt" viewBox="0 0 45 45">
 <defs>
  <marker id="DefaultArrow2" markerUnits="strokeWidth" viewBox="0 0 1 1" markerWidth="1" markerHeight="1" overflow="visible" orient="auto">
   <!-- REF_ARROW_STRAIGHT (-2) -->
   <g transform="scale(0.0092592592)">
    <!-- 1/108 -->
    <path d="M -9 54 L -9 -54 L 117 0 z"/>
   </g>
  </marker>
  <marker id="DefaultArrow3" markerUnits="strokeWidth" viewBox="0 0 1 1" markerWidth="1" markerHeight="1" overflow="visible" orient="auto">
   <!-- REF_ARROW_ANGLED -->
   <g transform="scale(0.0092592592)">
    <path d="M -27 54 L -9 0 L -27 -54 L 135 0 z"/>
   </g>
  </marker>
  <marker id="DefaultArrow4" markerUnits="strokeWidth" viewBox="0 0 1 1" markerWidth="1" markerHeight="1" overflow="visible" orient="auto">
   <!-- REF_ARROW_ROUNDED -->
   <g transform="scale(0.0092592592)">
    <path d="M -9,0 L -9,-45 C -9,-51.708 2.808,-56.580 9,-54 L 117,-9 C 120.916,-7.369 126.000,-4.242 126,0 C 126,4.242 120.916,7.369 117,9 L 9,54 C 2.808,56.580 -9,51.708 -9,45 z"/>
   </g>
  </marker>
  <marker id="DefaultArrow5" markerUnits="strokeWidth" viewBox="0 0 1 1" markerWidth="1" markerHeight="1" overflow="visible" orient="auto">
   <!-- REF_ARROW_SPOT -->
   <g transform="scale(0.0092592592)">
    <path d="M -54, 0 C -54,29.807 -29.807,54 0,54 C 29.807,54 54,29.807 54,0 C 54,-29.807 29.807,-54 0,-54 C -29.807,-54 -54,-29.807 -54,0 z"/>
   </g>
  </marker>
  <marker id="DefaultArrow6" markerUnits="strokeWidth" viewBox="0 0 1 1" markerWidth="1" markerHeight="1" overflow="visible" orient="auto">
   <!-- REF_ARROW_DIAMOND -->
   <g transform="scale(0.0092592592)">
    <path d="M -63,0 L 0,63 L 63,0 L 0,-63 z"/>
   </g>
  </marker>
  <marker id="DefaultArrow7" markerUnits="strokeWidth" viewBox="0 0 1 1" markerWidth="1" markerHeight="1" overflow="visible" orient="auto">
   <!-- REF_ARROW_FEATHER -->
   <g transform="scale(0.0092592592)">
    <path d="M 18,-54 L 108,-54 L 63,0 L 108,54 L 18, 54 L -36,0 z"/>
   </g>
  </marker>
  <marker id="DefaultArrow8" markerUnits="strokeWidth" viewBox="0 0 1 1" markerWidth="1" markerHeight="1" overflow="visible" orient="auto">
   <!-- REF_ARROW_FEATHER2 -->
   <g transform="scale(0.0092592592)">
    <path d="M -36,0 L 18,-54 L 54,-54 L 18,-18 L 27,-18 L 63,-54 L 99,-54 L 63,-18 L 72,-18 L 108,-54 L 144,-54 L 90,0 L 144,54 L 108,54 L 72,18 L 63,18 L 99,54 L 63,54 L 27,18 L 18,18 L 54,54 L 18,54 z"/>
   </g>
  </marker>
  <marker id="DefaultArrow9" markerUnits="strokeWidth" viewBox="0 0 1 1" markerWidth="1" markerHeight="1" overflow="visible" orient="auto">
   <!-- REF_ARROW_HOLLOWDIAMOND -->
   <g transform="scale(0.0092592592)">
    <path d="M 0,45 L -45,0 L 0, -45 L 45, 0 z M 0, 63 L-63, 0 L 0, -63 L 63, 0 z"/>
   </g>
  </marker>
  <filter id="StainedFilter">
   <feBlend mode="multiply" in2="BackgroundImage" in="SourceGraphic" result="blend"/>
   <feComposite in="blend" in2="SourceAlpha" operator="in" result="comp"/>
  </filter>
  <filter id="BleachFilter">
   <feBlend mode="screen" in2="BackgroundImage" in="SourceGraphic" result="blend"/>
   <feComposite in="blend" in2="SourceAlpha" operator="in" result="comp"/>
  </filter>
  <filter id="InvertTransparencyBitmapFilter">
   <feComponentTransfer>
    <feFuncR type="gamma" amplitude="1.055" exponent=".416666666" offset="-0.055"/>
    <feFuncG type="gamma" amplitude="1.055" exponent=".416666666" offset="-0.055"/>
    <feFuncB type="gamma" amplitude="1.055" exponent=".416666666" offset="-0.055"/>
   </feComponentTransfer>
   <feComponentTransfer>
    <feFuncR type="linear" slope="-1" intercept="1"/>
    <feFuncG type="linear" slope="-1" intercept="1"/>
    <feFuncB type="linear" slope="-1" intercept="1"/>
    <feFuncA type="linear" slope="1" intercept="0"/>
   </feComponentTransfer>
   <feComponentTransfer>
    <feFuncR type="gamma" amplitude="1" exponent="2.4" offset="0"/>
    <feFuncG type="gamma" amplitude="1" exponent="2.4" offset="0"/>
    <feFuncB type="gamma" amplitude="1" exponent="2.4" offset="0"/>
   </feComponentTransfer>
  </filter>
 </defs>
 <g id="Document" fill="none" stroke="black" font-family="Times New Roman" font-size="16" transform="scale(1 -1)">
  <g id="Spread" transform="translate(0 -45)">
   <g id="Layer 1">
    <g id="Group" stroke-linecap="round" stroke-width="0.75" stroke-miterlimit="79.8403193612775">
     <path d="M 33.376,18.376 C 35.031,18.376 36.375,17.031 36.375,15.375 C 36.375,13.72 35.031,12.376 33.376,12.376 C 31.72,12.376 30.375,13.72 30.375,15.375 C 30.375,17.031 31.72,18.376 33.376,18.376 Z" stroke-linejoin="round" stroke="#287bd1" marker-start="none" marker-end="none"/>
     <path d="M 33.376,16.126 C 33.789,16.126 34.125,15.79 34.125,15.375 C 34.125,14.962 33.789,14.626 33.376,14.626 C 32.961,14.626 32.625,14.962 32.625,15.375 C 32.625,15.79 32.961,16.126 33.376,16.126 Z" stroke-linejoin="round" stroke="#287bd1" marker-start="none" marker-end="none"/>
     <path d="M 28.125,15.374 C 28.125,18.272 30.479,20.626 33.377,20.626 C 36.273,20.626 38.625,18.272 38.625,15.374" fill="none" stroke-linejoin="round" stroke="#287bd1"/>
     <path d="M 42.375,19.876 L 39.375,19.876 C 39.702,18.751 40.518,17.979 42.262,17.626" fill="none" stroke-linejoin="round" stroke="#287bd1"/>
     <path d="M 29.625,25.126 L 29.625,28.778 C 29.625,29.246 29.993,29.626 30.447,29.626 L 32.853,29.626 C 33.466,29.626 34.107,29.179 34.423,28.637 L 36.56,25.142 C 36.722,24.876 36.334,24.376 36.022,24.376 L 30.375,24.376 C 30.022,24.376 29.625,24.773 29.625,25.126 Z" stroke-linejoin="round" stroke="#287bd1" marker-start="none" marker-end="none"/>
     <path d="M 10.876,18.376 C 12.531,18.376 13.875,17.031 13.875,15.375 C 13.875,13.72 12.531,12.376 10.876,12.376 C 9.22,12.376 7.875,13.72 7.875,15.375 C 7.875,17.031 9.22,18.376 10.876,18.376 Z" stroke-linejoin="round" stroke="#287bd1" marker-start="none" marker-end="none"/>
     <path d="M 10.876,16.126 C 11.289,16.126 11.625,15.79 11.625,15.375 C 11.625,14.962 11.289,14.626 10.876,14.626 C 10.461,14.626 10.125,14.962 10.125,15.375 C 10.125,15.79 10.461,16.126 10.876,16.126 Z" stroke-linejoin="round" stroke="#287bd1" marker-start="none" marker-end="none"/>
     <path d="M 5.625,15.374 C 5.625,18.272 7.979,20.626 10.877,20.626 C 13.773,20.626 16.125,18.272 16.125,15.374" fill="none" stroke-linejoin="round" stroke="#287bd1"/>
     <path d="M 16.125,15.376 L 28.125,15.376" fill="none" stroke-linejoin="round" stroke="#287bd1"/>
     <path d="M 5.625,15.376 L 1.875,15.376 L 1.875,31.126 C 1.875,31.833 2.668,32.626 3.375,32.626 L 32.683,32.626 C 33.854,32.626 35.102,31.842 35.712,30.842 L 39.345,24.893 L 41.497,22.359 C 42.122,21.623 42.375,20.563 42.375,19.597 L 42.375,15.376 L 38.625,15.376" fill="none" stroke-linejoin="round" stroke="#287bd1"/>
     <path d="M 25.875,25.128 L 4.875,25.128" fill="none" stroke-linejoin="round" stroke="#287bd1"/>
     <path d="M 25.875,28.877 L 4.875,28.877" fill="none" stroke-linejoin="round" stroke="#287bd1"/>
     <path d="M 0,45 L 0,0.002 L 45,0.002 L 45,45 L 0,45 Z" stroke-linejoin="miter" stroke="none" marker-start="none" marker-end="none"/>
    </g>
   </g>
  </g>
 </g>
</svg>
